<svg viewBox="-16 -32 880 192" width="880" height="192" xmlns="http://www.w3.org/2000/svg"><desc>Generated with https://github.com/Platane/snk</desc><style>@keyframes c0{14.79%{fill:var(--c1)}14.81%,to{fill:var(--ce)}}@keyframes c1{15.24%{fill:var(--c1)}15.26%,to{fill:var(--ce)}}@keyframes c2{4.92%{fill:var(--c1)}4.94%,to{fill:var(--ce)}}@keyframes c3{13.89%{fill:var(--c1)}13.91%,to{fill:var(--ce)}}@keyframes c4{13.44%{fill:var(--c1)}13.46%,to{fill:var(--ce)}}@keyframes c5{5.37%{fill:var(--c1)}5.39%,to{fill:var(--ce)}}@keyframes c6{6.27%{fill:var(--c1)}6.29%,to{fill:var(--ce)}}@keyframes c7{11.65%{fill:var(--c1)}11.67%,to{fill:var(--ce)}}@keyframes c8{7.16%{fill:var(--c1)}7.18%,to{fill:var(--ce)}}@keyframes c9{7.61%{fill:var(--c1)}7.63%,to{fill:var(--ce)}}@keyframes ca{8.06%{fill:var(--c1)}8.08%,to{fill:var(--ce)}}@keyframes cb{8.51%{fill:var(--c1)}8.53%,to{fill:var(--ce)}}@keyframes cc{11.2%{fill:var(--c1)}11.22%,to{fill:var(--ce)}}@keyframes cd{69.05%{fill:var(--c2)}69.07%,to{fill:var(--ce)}}@keyframes ce{68.15%{fill:var(--c2)}68.17%,to{fill:var(--ce)}}@keyframes cf{9.41%{fill:var(--c1)}9.43%,to{fill:var(--ce)}}@keyframes cg{20.62%{fill:var(--c1)}20.64%,to{fill:var(--ce)}}@keyframes ch{9.86%{fill:var(--c1)}9.88%,to{fill:var(--ce)}}@keyframes ci{21.51%{fill:var(--c1)}21.53%,to{fill:var(--ce)}}@keyframes cj{21.07%{fill:var(--c1)}21.09%,to{fill:var(--ce)}}@keyframes ck{23.76%{fill:var(--c1)}23.78%,to{fill:var(--ce)}}@keyframes cl{26%{fill:var(--c1)}26.02%,to{fill:var(--ce)}}@keyframes cm{25.55%{fill:var(--c1)}25.57%,to{fill:var(--ce)}}@keyframes cn{33.62%{fill:var(--c1)}33.64%,to{fill:var(--ce)}}@keyframes co{30.93%{fill:var(--c1)}30.95%,to{fill:var(--ce)}}@keyframes cp{59.63%{fill:var(--c2)}59.65%,to{fill:var(--ce)}}@keyframes cq{34.97%{fill:var(--c1)}34.99%,to{fill:var(--ce)}}@keyframes cr{31.38%{fill:var(--c1)}31.4%,to{fill:var(--ce)}}@keyframes cs{58.73%{fill:var(--c2)}58.75%,to{fill:var(--ce)}}@keyframes ct{82.5%{fill:var(--c4)}82.52%,to{fill:var(--ce)}}@keyframes cu{80.26%{fill:var(--c3)}80.28%,to{fill:var(--ce)}}@keyframes cv{57.39%{fill:var(--c2)}57.41%,to{fill:var(--ce)}}@keyframes cw{56.94%{fill:var(--c2)}56.96%,to{fill:var(--ce)}}@keyframes cx{36.76%{fill:var(--c1)}36.78%,to{fill:var(--ce)}}@keyframes cy{36.31%{fill:var(--c1)}36.33%,to{fill:var(--ce)}}@keyframes cz{81.6%{fill:var(--c4)}81.62%,to{fill:var(--ce)}}@keyframes c10{81.16%{fill:var(--c3)}81.18%,to{fill:var(--ce)}}@keyframes c11{52.9%{fill:var(--c1)}52.92%,to{fill:var(--ce)}}@keyframes c12{55.6%{fill:var(--c2)}55.62%,to{fill:var(--ce)}}@keyframes c13{50.21%{fill:var(--c1)}50.23%,to{fill:var(--ce)}}@keyframes c14{38.11%{fill:var(--c1)}38.13%,to{fill:var(--ce)}}@keyframes c15{37.66%{fill:var(--c1)}37.68%,to{fill:var(--ce)}}@keyframes c16{48.87%{fill:var(--c1)}48.89%,to{fill:var(--ce)}}@keyframes c17{49.77%{fill:var(--c1)}49.79%,to{fill:var(--ce)}}@keyframes c18{51.11%{fill:var(--c1)}51.13%,to{fill:var(--ce)}}@keyframes c19{39.9%{fill:var(--c1)}39.92%,to{fill:var(--ce)}}@keyframes c1a{41.25%{fill:var(--c1)}41.27%,to{fill:var(--ce)}}@keyframes c1b{42.59%{fill:var(--c1)}42.61%,to{fill:var(--ce)}}@keyframes c1c{44.83%{fill:var(--c1)}44.85%,to{fill:var(--ce)}}@keyframes u0{4.92%{transform:scale(0,1)}4.94%,5.37%{transform:scale(.03,1)}5.39%,6.27%{transform:scale(.05,1)}6.29%,7.16%{transform:scale(.08,1)}7.18%,7.61%{transform:scale(.11,1)}7.63%,8.06%{transform:scale(.13,1)}8.08%,8.51%{transform:scale(.16,1)}8.53%,9.41%{transform:scale(.18,1)}9.43%,9.86%{transform:scale(.21,1)}11.2%,9.88%{transform:scale(.24,1)}11.22%,11.65%{transform:scale(.26,1)}11.67%,13.44%{transform:scale(.29,1)}13.46%,13.89%{transform:scale(.32,1)}13.91%,14.79%{transform:scale(.34,1)}14.81%,15.24%{transform:scale(.37,1)}15.26%,20.62%{transform:scale(.39,1)}20.64%,21.07%{transform:scale(.42,1)}21.09%,21.51%{transform:scale(.45,1)}21.53%,23.76%{transform:scale(.47,1)}23.78%,25.55%{transform:scale(.5,1)}25.57%,26%{transform:scale(.53,1)}26.02%,30.93%{transform:scale(.55,1)}30.95%,31.38%{transform:scale(.58,1)}31.4%,33.62%{transform:scale(.61,1)}33.64%,34.97%{transform:scale(.63,1)}34.99%,36.31%{transform:scale(.66,1)}36.33%,36.76%{transform:scale(.68,1)}36.78%,37.66%{transform:scale(.71,1)}37.68%,38.11%{transform:scale(.74,1)}38.13%,39.9%{transform:scale(.76,1)}39.92%,41.25%{transform:scale(.79,1)}41.27%,42.59%{transform:scale(.82,1)}42.61%,44.83%{transform:scale(.84,1)}44.85%,48.87%{transform:scale(.87,1)}48.89%,49.77%{transform:scale(.89,1)}49.79%,50.21%{transform:scale(.92,1)}50.23%,51.11%{transform:scale(.95,1)}51.13%,52.9%{transform:scale(.97,1)}52.92%,to{transform:scale(1,1)}}@keyframes u1{55.6%{transform:scale(0,1)}55.62%,56.94%{transform:scale(.14,1)}56.96%,57.39%{transform:scale(.29,1)}57.41%,58.73%{transform:scale(.43,1)}58.75%,59.63%{transform:scale(.57,1)}59.65%,68.15%{transform:scale(.71,1)}68.17%,69.05%{transform:scale(.86,1)}69.07%,to{transform:scale(1,1)}}@keyframes u2{80.26%{transform:scale(0,1)}80.28%,81.16%{transform:scale(.5,1)}81.18%,to{transform:scale(1,1)}}@keyframes u3{81.6%{transform:scale(0,1)}81.62%,82.5%{transform:scale(.5,1)}82.52%,to{transform:scale(1,1)}}@keyframes s0{0%,99.55%{transform:translate(0,-16px)}.45%{transform:translate(0,0)}4.04%{transform:translate(128px,0)}4.93%{transform:translate(128px,32px)}5.83%{transform:translate(160px,32px)}6.28%{transform:translate(160px,16px)}7.17%{transform:translate(192px,16px)}8.52%{transform:translate(192px,64px)}8.97%,91.48%{transform:translate(208px,64px)}9.42%,91.03%{transform:translate(208px,80px)}9.87%{transform:translate(224px,80px)}10.31%,18.39%{transform:translate(224px,96px)}11.66%{transform:translate(176px,96px)}12.11%{transform:translate(176px,80px)}13.45%{transform:translate(128px,80px)}13.9%{transform:translate(128px,64px)}14.35%{transform:translate(112px,64px)}15.25%{transform:translate(112px,96px)}20.63%{transform:translate(224px,16px)}21.08%{transform:translate(240px,16px)}21.52%{transform:translate(240px,0)}22.42%{transform:translate(272px,0)}23.77%{transform:translate(272px,48px)}25.11%{transform:translate(320px,48px)}26.01%{transform:translate(320px,16px)}31.39%{transform:translate(512px,16px)}31.84%,57.85%{transform:translate(512px,0)}32.74%{transform:translate(480px,0)}34.53%{transform:translate(480px,64px)}35.43%,82.06%{transform:translate(512px,64px)}35.87%{transform:translate(512px,48px)}36.32%{transform:translate(528px,48px)}36.77%{transform:translate(528px,32px)}37.67%{transform:translate(560px,32px)}38.12%{transform:translate(560px,16px)}39.46%{transform:translate(608px,16px)}39.91%{transform:translate(608px,32px)}41.7%{transform:translate(672px,32px)}42.6%{transform:translate(672px,0)}43.5%{transform:translate(704px,0)}44.84%{transform:translate(704px,48px)}48.88%{transform:translate(560px,48px)}49.78%,51.57%{transform:translate(560px,80px)}50.22%,52.02%{transform:translate(544px,80px)}50.67%,52.47%{transform:translate(544px,96px)}51.12%{transform:translate(560px,96px)}52.91%,80.72%{transform:translate(528px,96px)}53.36%{transform:translate(528px,112px)}53.81%{transform:translate(544px,112px)}56.5%{transform:translate(544px,16px)}56.95%{transform:translate(528px,16px)}57.4%{transform:translate(528px,0)}58.74%{transform:translate(512px,32px)}59.19%{transform:translate(496px,32px)}59.64%{transform:translate(496px,48px)}60.09%{transform:translate(480px,48px)}60.54%{transform:translate(480px,32px)}68.16%{transform:translate(208px,32px)}69.06%{transform:translate(208px,0)}77.13%{transform:translate(496px,0)}79.82%{transform:translate(496px,96px)}81.61%{transform:translate(528px,64px)}82.51%{transform:translate(512px,80px)}92.38%{transform:translate(176px,64px)}92.83%{transform:translate(176px,48px)}93.72%{transform:translate(144px,48px)}94.62%{transform:translate(144px,16px)}96.86%{transform:translate(64px,16px)}97.31%{transform:translate(64px,0)}97.76%{transform:translate(48px,0)}98.21%{transform:translate(48px,-16px)}}@keyframes s1{0%,99.55%{transform:translate(16px,-16px)}.45%{transform:translate(0,-16px)}.9%{transform:translate(0,0)}4.48%{transform:translate(128px,0)}5.38%{transform:translate(128px,32px)}6.28%{transform:translate(160px,32px)}6.73%{transform:translate(160px,16px)}7.62%{transform:translate(192px,16px)}8.97%{transform:translate(192px,64px)}9.42%,91.93%{transform:translate(208px,64px)}9.87%,91.48%{transform:translate(208px,80px)}10.31%{transform:translate(224px,80px)}10.76%,18.83%{transform:translate(224px,96px)}12.11%{transform:translate(176px,96px)}12.56%{transform:translate(176px,80px)}13.9%{transform:translate(128px,80px)}14.35%{transform:translate(128px,64px)}14.8%{transform:translate(112px,64px)}15.7%{transform:translate(112px,96px)}21.08%{transform:translate(224px,16px)}21.52%{transform:translate(240px,16px)}21.97%{transform:translate(240px,0)}22.87%{transform:translate(272px,0)}24.22%{transform:translate(272px,48px)}25.56%{transform:translate(320px,48px)}26.46%{transform:translate(320px,16px)}31.84%{transform:translate(512px,16px)}32.29%,58.3%{transform:translate(512px,0)}33.18%{transform:translate(480px,0)}34.98%{transform:translate(480px,64px)}35.87%,82.51%{transform:translate(512px,64px)}36.32%{transform:translate(512px,48px)}36.77%{transform:translate(528px,48px)}37.22%{transform:translate(528px,32px)}38.12%{transform:translate(560px,32px)}38.57%{transform:translate(560px,16px)}39.91%{transform:translate(608px,16px)}40.36%{transform:translate(608px,32px)}42.15%{transform:translate(672px,32px)}43.05%{transform:translate(672px,0)}43.95%{transform:translate(704px,0)}45.29%{transform:translate(704px,48px)}49.33%{transform:translate(560px,48px)}50.22%,52.02%{transform:translate(560px,80px)}50.67%,52.47%{transform:translate(544px,80px)}51.12%,52.91%{transform:translate(544px,96px)}51.57%{transform:translate(560px,96px)}53.36%,81.17%{transform:translate(528px,96px)}53.81%{transform:translate(528px,112px)}54.26%{transform:translate(544px,112px)}56.95%{transform:translate(544px,16px)}57.4%{transform:translate(528px,16px)}57.85%{transform:translate(528px,0)}59.19%{transform:translate(512px,32px)}59.64%{transform:translate(496px,32px)}60.09%{transform:translate(496px,48px)}60.54%{transform:translate(480px,48px)}60.99%{transform:translate(480px,32px)}68.61%{transform:translate(208px,32px)}69.51%{transform:translate(208px,0)}77.58%{transform:translate(496px,0)}80.27%{transform:translate(496px,96px)}82.06%{transform:translate(528px,64px)}82.96%{transform:translate(512px,80px)}92.83%{transform:translate(176px,64px)}93.27%{transform:translate(176px,48px)}94.17%{transform:translate(144px,48px)}95.07%{transform:translate(144px,16px)}97.31%{transform:translate(64px,16px)}97.76%{transform:translate(64px,0)}98.21%{transform:translate(48px,0)}98.65%{transform:translate(48px,-16px)}}@keyframes s2{0%,99.55%{transform:translate(32px,-16px)}.9%{transform:translate(0,-16px)}1.35%{transform:translate(0,0)}4.93%{transform:translate(128px,0)}5.83%{transform:translate(128px,32px)}6.73%{transform:translate(160px,32px)}7.17%{transform:translate(160px,16px)}8.07%{transform:translate(192px,16px)}9.42%{transform:translate(192px,64px)}9.87%,92.38%{transform:translate(208px,64px)}10.31%,91.93%{transform:translate(208px,80px)}10.76%{transform:translate(224px,80px)}11.21%,19.28%{transform:translate(224px,96px)}12.56%{transform:translate(176px,96px)}13%{transform:translate(176px,80px)}14.35%{transform:translate(128px,80px)}14.8%{transform:translate(128px,64px)}15.25%{transform:translate(112px,64px)}16.14%{transform:translate(112px,96px)}21.52%{transform:translate(224px,16px)}21.97%{transform:translate(240px,16px)}22.42%{transform:translate(240px,0)}23.32%{transform:translate(272px,0)}24.66%{transform:translate(272px,48px)}26.01%{transform:translate(320px,48px)}26.91%{transform:translate(320px,16px)}32.29%{transform:translate(512px,16px)}32.74%,58.74%{transform:translate(512px,0)}33.63%{transform:translate(480px,0)}35.43%{transform:translate(480px,64px)}36.32%,82.96%{transform:translate(512px,64px)}36.77%{transform:translate(512px,48px)}37.22%{transform:translate(528px,48px)}37.67%{transform:translate(528px,32px)}38.57%{transform:translate(560px,32px)}39.01%{transform:translate(560px,16px)}40.36%{transform:translate(608px,16px)}40.81%{transform:translate(608px,32px)}42.6%{transform:translate(672px,32px)}43.5%{transform:translate(672px,0)}44.39%{transform:translate(704px,0)}45.74%{transform:translate(704px,48px)}49.78%{transform:translate(560px,48px)}50.67%,52.47%{transform:translate(560px,80px)}51.12%,52.91%{transform:translate(544px,80px)}51.57%,53.36%{transform:translate(544px,96px)}52.02%{transform:translate(560px,96px)}53.81%,81.61%{transform:translate(528px,96px)}54.26%{transform:translate(528px,112px)}54.71%{transform:translate(544px,112px)}57.4%{transform:translate(544px,16px)}57.85%{transform:translate(528px,16px)}58.3%{transform:translate(528px,0)}59.64%{transform:translate(512px,32px)}60.09%{transform:translate(496px,32px)}60.54%{transform:translate(496px,48px)}60.99%{transform:translate(480px,48px)}61.43%{transform:translate(480px,32px)}69.06%{transform:translate(208px,32px)}69.96%{transform:translate(208px,0)}78.03%{transform:translate(496px,0)}80.72%{transform:translate(496px,96px)}82.51%{transform:translate(528px,64px)}83.41%{transform:translate(512px,80px)}93.27%{transform:translate(176px,64px)}93.72%{transform:translate(176px,48px)}94.62%{transform:translate(144px,48px)}95.52%{transform:translate(144px,16px)}97.76%{transform:translate(64px,16px)}98.21%{transform:translate(64px,0)}98.65%{transform:translate(48px,0)}99.1%{transform:translate(48px,-16px)}}@keyframes s3{0%,99.55%{transform:translate(48px,-16px)}1.35%{transform:translate(0,-16px)}1.79%{transform:translate(0,0)}5.38%{transform:translate(128px,0)}6.28%{transform:translate(128px,32px)}7.17%{transform:translate(160px,32px)}7.62%{transform:translate(160px,16px)}8.52%{transform:translate(192px,16px)}9.87%{transform:translate(192px,64px)}10.31%,92.83%{transform:translate(208px,64px)}10.76%,92.38%{transform:translate(208px,80px)}11.21%{transform:translate(224px,80px)}11.66%,19.73%{transform:translate(224px,96px)}13%{transform:translate(176px,96px)}13.45%{transform:translate(176px,80px)}14.8%{transform:translate(128px,80px)}15.25%{transform:translate(128px,64px)}15.7%{transform:translate(112px,64px)}16.59%{transform:translate(112px,96px)}21.97%{transform:translate(224px,16px)}22.42%{transform:translate(240px,16px)}22.87%{transform:translate(240px,0)}23.77%{transform:translate(272px,0)}25.11%{transform:translate(272px,48px)}26.46%{transform:translate(320px,48px)}27.35%{transform:translate(320px,16px)}32.74%{transform:translate(512px,16px)}33.18%,59.19%{transform:translate(512px,0)}34.08%{transform:translate(480px,0)}35.87%{transform:translate(480px,64px)}36.77%,83.41%{transform:translate(512px,64px)}37.22%{transform:translate(512px,48px)}37.67%{transform:translate(528px,48px)}38.12%{transform:translate(528px,32px)}39.01%{transform:translate(560px,32px)}39.46%{transform:translate(560px,16px)}40.81%{transform:translate(608px,16px)}41.26%{transform:translate(608px,32px)}43.05%{transform:translate(672px,32px)}43.95%{transform:translate(672px,0)}44.84%{transform:translate(704px,0)}46.19%{transform:translate(704px,48px)}50.22%{transform:translate(560px,48px)}51.12%,52.91%{transform:translate(560px,80px)}51.57%,53.36%{transform:translate(544px,80px)}52.02%,53.81%{transform:translate(544px,96px)}52.47%{transform:translate(560px,96px)}54.26%,82.06%{transform:translate(528px,96px)}54.71%{transform:translate(528px,112px)}55.16%{transform:translate(544px,112px)}57.85%{transform:translate(544px,16px)}58.3%{transform:translate(528px,16px)}58.74%{transform:translate(528px,0)}60.09%{transform:translate(512px,32px)}60.54%{transform:translate(496px,32px)}60.99%{transform:translate(496px,48px)}61.43%{transform:translate(480px,48px)}61.88%{transform:translate(480px,32px)}69.51%{transform:translate(208px,32px)}70.4%{transform:translate(208px,0)}78.48%{transform:translate(496px,0)}81.17%{transform:translate(496px,96px)}82.96%{transform:translate(528px,64px)}83.86%{transform:translate(512px,80px)}93.72%{transform:translate(176px,64px)}94.17%{transform:translate(176px,48px)}95.07%{transform:translate(144px,48px)}95.96%{transform:translate(144px,16px)}98.21%{transform:translate(64px,16px)}98.65%{transform:translate(64px,0)}99.1%{transform:translate(48px,0)}}:root{--cb:#1b1f230a;--cs:purple;--ce:#ebedf0;--c0:#ebedf0;--c1:#9be9a8;--c2:#40c463;--c3:#30a14e;--c4:#216e39}@media (prefers-color-scheme:dark){:root{--cb:#1b1f230a;--cs:purple;--ce:#161b22;--c1:#01311f;--c2:#034525;--c3:#0f6d31;--c4:#00c647}}.c{shape-rendering:geometricPrecision;fill:var(--ce);stroke-width:1px;stroke:var(--cb);animation:none 22300ms linear infinite}.c.c0{fill:var(--c1);animation-name:c0}.c.c1,.c.c2,.c.c3{fill:var(--c1);animation-name:c1}.c.c2,.c.c3{animation-name:c2}.c.c3{animation-name:c3}.c.c4,.c.c5,.c.c6{fill:var(--c1);animation-name:c4}.c.c5,.c.c6{animation-name:c5}.c.c6{animation-name:c6}.c.c7,.c.c8,.c.c9{fill:var(--c1);animation-name:c7}.c.c8,.c.c9{animation-name:c8}.c.c9{animation-name:c9}.c.ca,.c.cb,.c.cc{fill:var(--c1);animation-name:ca}.c.cb,.c.cc{animation-name:cb}.c.cc{animation-name:cc}.c.cd,.c.ce{fill:var(--c2);animation-name:cd}.c.ce{animation-name:ce}.c.cf{fill:var(--c1);animation-name:cf}.c.cg,.c.ch,.c.ci{fill:var(--c1);animation-name:cg}.c.ch,.c.ci{animation-name:ch}.c.ci{animation-name:ci}.c.cj,.c.ck,.c.cl{fill:var(--c1);animation-name:cj}.c.ck,.c.cl{animation-name:ck}.c.cl{animation-name:cl}.c.cm,.c.cn,.c.co{fill:var(--c1);animation-name:cm}.c.cn,.c.co{animation-name:cn}.c.co{animation-name:co}.c.cp{fill:var(--c2);animation-name:cp}.c.cq,.c.cr{fill:var(--c1);animation-name:cq}.c.cr{animation-name:cr}.c.cs{fill:var(--c2);animation-name:cs}.c.ct{fill:var(--c4);animation-name:ct}.c.cu{fill:var(--c3);animation-name:cu}.c.cv,.c.cw{fill:var(--c2);animation-name:cv}.c.cw{animation-name:cw}.c.cx,.c.cy{fill:var(--c1);animation-name:cx}.c.cy{animation-name:cy}.c.cz{fill:var(--c4);animation-name:cz}.c.c10{fill:var(--c3);animation-name:c10}.c.c11{fill:var(--c1);animation-name:c11}.c.c12{fill:var(--c2);animation-name:c12}.c.c13{fill:var(--c1);animation-name:c13}.c.c14,.c.c15,.c.c16{fill:var(--c1);animation-name:c14}.c.c15,.c.c16{animation-name:c15}.c.c16{animation-name:c16}.c.c17,.c.c18,.c.c19{fill:var(--c1);animation-name:c17}.c.c18,.c.c19{animation-name:c18}.c.c19{animation-name:c19}.c.c1a,.c.c1b,.c.c1c{fill:var(--c1);animation-name:c1a}.c.c1b,.c.c1c{animation-name:c1b}.c.c1c{animation-name:c1c}.s,.u{animation:none linear 22300ms infinite}.u,.u.u0{transform-origin:0 0}.u{transform:scale(0,1)}.u.u0{fill:var(--c1);animation-name:u0}.u.u1{fill:var(--c2);animation-name:u1;transform-origin:657.6px 0}.u.u2{fill:var(--c3);animation-name:u2;transform-origin:778.8px 0}.u.u3{fill:var(--c4);animation-name:u3;transform-origin:813.4px 0}.s{shape-rendering:geometricPrecision;fill:var(--cs)}.s.s0{transform:translate(0,-16px);animation-name:s0}.s.s1{transform:translate(16px,-16px);animation-name:s1}.s.s2{transform:translate(32px,-16px);animation-name:s2}.s.s3{transform:translate(48px,-16px);animation-name:s3}</style><rect class="c" x="2" y="2" rx="2" ry="2" width="12" height="12"/><rect class="c" x="2" y="18" rx="2" ry="2" width="12" height="12"/><rect class="c" x="2" y="34" rx="2" ry="2" width="12" height="12"/><rect class="c" x="2" y="50" rx="2" ry="2" width="12" height="12"/><rect class="c" x="2" y="66" rx="2" ry="2" width="12" height="12"/><rect class="c" x="2" y="82" rx="2" ry="2" width="12" height="12"/><rect class="c" x="2" y="98" rx="2" ry="2" width="12" height="12"/><rect class="c" x="18" y="2" rx="2" ry="2" width="12" height="12"/><rect class="c" x="18" y="18" rx="2" ry="2" width="12" height="12"/><rect class="c" x="18" y="34" rx="2" ry="2" width="12" height="12"/><rect class="c" x="18" y="50" rx="2" ry="2" width="12" height="12"/><rect class="c" x="18" y="66" rx="2" ry="2" width="12" height="12"/><rect class="c" x="18" y="82" rx="2" ry="2" width="12" height="12"/><rect class="c" x="18" y="98" rx="2" ry="2" width="12" height="12"/><rect class="c" x="34" y="2" rx="2" ry="2" width="12" height="12"/><rect class="c" x="34" y="18" rx="2" ry="2" width="12" height="12"/><rect class="c" x="34" y="34" rx="2" ry="2" width="12" height="12"/><rect class="c" x="34" y="50" rx="2" ry="2" width="12" height="12"/><rect class="c" x="34" y="66" rx="2" ry="2" width="12" height="12"/><rect class="c" x="34" y="82" rx="2" ry="2" width="12" height="12"/><rect class="c" x="34" y="98" rx="2" ry="2" width="12" height="12"/><rect class="c" x="50" y="2" rx="2" ry="2" width="12" height="12"/><rect class="c" x="50" y="18" rx="2" ry="2" width="12" height="12"/><rect class="c" x="50" y="34" rx="2" ry="2" width="12" height="12"/><rect class="c" x="50" y="50" rx="2" ry="2" width="12" height="12"/><rect class="c" x="50" y="66" rx="2" ry="2" width="12" height="12"/><rect class="c" x="50" y="82" rx="2" ry="2" width="12" height="12"/><rect class="c" x="50" y="98" rx="2" ry="2" width="12" height="12"/><rect class="c" x="66" y="2" rx="2" ry="2" width="12" height="12"/><rect class="c" x="66" y="18" rx="2" ry="2" width="12" height="12"/><rect class="c" x="66" y="34" rx="2" ry="2" width="12" height="12"/><rect class="c" x="66" y="50" rx="2" ry="2" width="12" height="12"/><rect class="c" x="66" y="66" rx="2" ry="2" width="12" height="12"/><rect class="c" x="66" y="82" rx="2" ry="2" width="12" height="12"/><rect class="c" x="66" y="98" rx="2" ry="2" width="12" height="12"/><rect class="c" x="82" y="2" rx="2" ry="2" width="12" height="12"/><rect class="c" x="82" y="18" rx="2" ry="2" width="12" height="12"/><rect class="c" x="82" y="34" rx="2" ry="2" width="12" height="12"/><rect class="c" x="82" y="50" rx="2" ry="2" width="12" height="12"/><rect class="c" x="82" y="66" rx="2" ry="2" width="12" height="12"/><rect class="c" x="82" y="82" rx="2" ry="2" width="12" height="12"/><rect class="c" x="82" y="98" rx="2" ry="2" width="12" height="12"/><rect class="c" x="98" y="2" rx="2" ry="2" width="12" height="12"/><rect class="c" x="98" y="18" rx="2" ry="2" width="12" height="12"/><rect class="c" x="98" y="34" rx="2" ry="2" width="12" height="12"/><rect class="c" x="98" y="50" rx="2" ry="2" width="12" height="12"/><rect class="c" x="98" y="66" rx="2" ry="2" width="12" height="12"/><rect class="c" x="98" y="82" rx="2" ry="2" width="12" height="12"/><rect class="c" x="98" y="98" rx="2" ry="2" width="12" height="12"/><rect class="c" x="114" y="2" rx="2" ry="2" width="12" height="12"/><rect class="c" x="114" y="18" rx="2" ry="2" width="12" height="12"/><rect class="c" x="114" y="34" rx="2" ry="2" width="12" height="12"/><rect class="c" x="114" y="50" rx="2" ry="2" width="12" height="12"/><rect class="c" x="114" y="66" rx="2" ry="2" width="12" height="12"/><rect class="c c0" x="114" y="82" rx="2" ry="2" width="12" height="12"/><rect class="c c1" x="114" y="98" rx="2" ry="2" width="12" height="12"/><rect class="c" x="130" y="2" rx="2" ry="2" width="12" height="12"/><rect class="c" x="130" y="18" rx="2" ry="2" width="12" height="12"/><rect class="c c2" x="130" y="34" rx="2" ry="2" width="12" height="12"/><rect class="c" x="130" y="50" rx="2" ry="2" width="12" height="12"/><rect class="c c3" x="130" y="66" rx="2" ry="2" width="12" height="12"/><rect class="c c4" x="130" y="82" rx="2" ry="2" width="12" height="12"/><rect class="c" x="130" y="98" rx="2" ry="2" width="12" height="12"/><rect class="c" x="146" y="2" rx="2" ry="2" width="12" height="12"/><rect class="c" x="146" y="18" rx="2" ry="2" width="12" height="12"/><rect class="c c5" x="146" y="34" rx="2" ry="2" width="12" height="12"/><rect class="c" x="146" y="50" rx="2" ry="2" width="12" height="12"/><rect class="c" x="146" y="66" rx="2" ry="2" width="12" height="12"/><rect class="c" x="146" y="82" rx="2" ry="2" width="12" height="12"/><rect class="c" x="146" y="98" rx="2" ry="2" width="12" height="12"/><rect class="c" x="162" y="2" rx="2" ry="2" width="12" height="12"/><rect class="c c6" x="162" y="18" rx="2" ry="2" width="12" height="12"/><rect class="c" x="162" y="34" rx="2" ry="2" width="12" height="12"/><rect class="c" x="162" y="50" rx="2" ry="2" width="12" height="12"/><rect class="c" x="162" y="66" rx="2" ry="2" width="12" height="12"/><rect class="c" x="162" y="82" rx="2" ry="2" width="12" height="12"/><rect class="c" x="162" y="98" rx="2" ry="2" width="12" height="12"/><rect class="c" x="178" y="2" rx="2" ry="2" width="12" height="12"/><rect class="c" x="178" y="18" rx="2" ry="2" width="12" height="12"/><rect class="c" x="178" y="34" rx="2" ry="2" width="12" height="12"/><rect class="c" x="178" y="50" rx="2" ry="2" width="12" height="12"/><rect class="c" x="178" y="66" rx="2" ry="2" width="12" height="12"/><rect class="c" x="178" y="82" rx="2" ry="2" width="12" height="12"/><rect class="c c7" x="178" y="98" rx="2" ry="2" width="12" height="12"/><rect class="c" x="194" y="2" rx="2" ry="2" width="12" height="12"/><rect class="c c8" x="194" y="18" rx="2" ry="2" width="12" height="12"/><rect class="c c9" x="194" y="34" rx="2" ry="2" width="12" height="12"/><rect class="c ca" x="194" y="50" rx="2" ry="2" width="12" height="12"/><rect class="c cb" x="194" y="66" rx="2" ry="2" width="12" height="12"/><rect class="c" x="194" y="82" rx="2" ry="2" width="12" height="12"/><rect class="c cc" x="194" y="98" rx="2" ry="2" width="12" height="12"/><rect class="c cd" x="210" y="2" rx="2" ry="2" width="12" height="12"/><rect class="c" x="210" y="18" rx="2" ry="2" width="12" height="12"/><rect class="c ce" x="210" y="34" rx="2" ry="2" width="12" height="12"/><rect class="c" x="210" y="50" rx="2" ry="2" width="12" height="12"/><rect class="c" x="210" y="66" rx="2" ry="2" width="12" height="12"/><rect class="c cf" x="210" y="82" rx="2" ry="2" width="12" height="12"/><rect class="c" x="210" y="98" rx="2" ry="2" width="12" height="12"/><rect class="c" x="226" y="2" rx="2" ry="2" width="12" height="12"/><rect class="c cg" x="226" y="18" rx="2" ry="2" width="12" height="12"/><rect class="c" x="226" y="34" rx="2" ry="2" width="12" height="12"/><rect class="c" x="226" y="50" rx="2" ry="2" width="12" height="12"/><rect class="c" x="226" y="66" rx="2" ry="2" width="12" height="12"/><rect class="c ch" x="226" y="82" rx="2" ry="2" width="12" height="12"/><rect class="c" x="226" y="98" rx="2" ry="2" width="12" height="12"/><rect class="c ci" x="242" y="2" rx="2" ry="2" width="12" height="12"/><rect class="c cj" x="242" y="18" rx="2" ry="2" width="12" height="12"/><rect class="c" x="242" y="34" rx="2" ry="2" width="12" height="12"/><rect class="c" x="242" y="50" rx="2" ry="2" width="12" height="12"/><rect class="c" x="242" y="66" rx="2" ry="2" width="12" height="12"/><rect class="c" x="242" y="82" rx="2" ry="2" width="12" height="12"/><rect class="c" x="242" y="98" rx="2" ry="2" width="12" height="12"/><rect class="c" x="258" y="2" rx="2" ry="2" width="12" height="12"/><rect class="c" x="258" y="18" rx="2" ry="2" width="12" height="12"/><rect class="c" x="258" y="34" rx="2" ry="2" width="12" height="12"/><rect class="c" x="258" y="50" rx="2" ry="2" width="12" height="12"/><rect class="c" x="258" y="66" rx="2" ry="2" width="12" height="12"/><rect class="c" x="258" y="82" rx="2" ry="2" width="12" height="12"/><rect class="c" x="258" y="98" rx="2" ry="2" width="12" height="12"/><rect class="c" x="274" y="2" rx="2" ry="2" width="12" height="12"/><rect class="c" x="274" y="18" rx="2" ry="2" width="12" height="12"/><rect class="c" x="274" y="34" rx="2" ry="2" width="12" height="12"/><rect class="c ck" x="274" y="50" rx="2" ry="2" width="12" height="12"/><rect class="c" x="274" y="66" rx="2" ry="2" width="12" height="12"/><rect class="c" x="274" y="82" rx="2" ry="2" width="12" height="12"/><rect class="c" x="274" y="98" rx="2" ry="2" width="12" height="12"/><rect class="c" x="290" y="2" rx="2" ry="2" width="12" height="12"/><rect class="c" x="290" y="18" rx="2" ry="2" width="12" height="12"/><rect class="c" x="290" y="34" rx="2" ry="2" width="12" height="12"/><rect class="c" x="290" y="50" rx="2" ry="2" width="12" height="12"/><rect class="c" x="290" y="66" rx="2" ry="2" width="12" height="12"/><rect class="c" x="290" y="82" rx="2" ry="2" width="12" height="12"/><rect class="c" x="290" y="98" rx="2" ry="2" width="12" height="12"/><rect class="c" x="306" y="2" rx="2" ry="2" width="12" height="12"/><rect class="c" x="306" y="18" rx="2" ry="2" width="12" height="12"/><rect class="c" x="306" y="34" rx="2" ry="2" width="12" height="12"/><rect class="c" x="306" y="50" rx="2" ry="2" width="12" height="12"/><rect class="c" x="306" y="66" rx="2" ry="2" width="12" height="12"/><rect class="c" x="306" y="82" rx="2" ry="2" width="12" height="12"/><rect class="c" x="306" y="98" rx="2" ry="2" width="12" height="12"/><rect class="c" x="322" y="2" rx="2" ry="2" width="12" height="12"/><rect class="c cl" x="322" y="18" rx="2" ry="2" width="12" height="12"/><rect class="c cm" x="322" y="34" rx="2" ry="2" width="12" height="12"/><rect class="c" x="322" y="50" rx="2" ry="2" width="12" height="12"/><rect class="c" x="322" y="66" rx="2" ry="2" width="12" height="12"/><rect class="c" x="322" y="82" rx="2" ry="2" width="12" height="12"/><rect class="c" x="322" y="98" rx="2" ry="2" width="12" height="12"/><rect class="c" x="338" y="2" rx="2" ry="2" width="12" height="12"/><rect class="c" x="338" y="18" rx="2" ry="2" width="12" height="12"/><rect class="c" x="338" y="34" rx="2" ry="2" width="12" height="12"/><rect class="c" x="338" y="50" rx="2" ry="2" width="12" height="12"/><rect class="c" x="338" y="66" rx="2" ry="2" width="12" height="12"/><rect class="c" x="338" y="82" rx="2" ry="2" width="12" height="12"/><rect class="c" x="338" y="98" rx="2" ry="2" width="12" height="12"/><rect class="c" x="354" y="2" rx="2" ry="2" width="12" height="12"/><rect class="c" x="354" y="18" rx="2" ry="2" width="12" height="12"/><rect class="c" x="354" y="34" rx="2" ry="2" width="12" height="12"/><rect class="c" x="354" y="50" rx="2" ry="2" width="12" height="12"/><rect class="c" x="354" y="66" rx="2" ry="2" width="12" height="12"/><rect class="c" x="354" y="82" rx="2" ry="2" width="12" height="12"/><rect class="c" x="354" y="98" rx="2" ry="2" width="12" height="12"/><rect class="c" x="370" y="2" rx="2" ry="2" width="12" height="12"/><rect class="c" x="370" y="18" rx="2" ry="2" width="12" height="12"/><rect class="c" x="370" y="34" rx="2" ry="2" width="12" height="12"/><rect class="c" x="370" y="50" rx="2" ry="2" width="12" height="12"/><rect class="c" x="370" y="66" rx="2" ry="2" width="12" height="12"/><rect class="c" x="370" y="82" rx="2" ry="2" width="12" height="12"/><rect class="c" x="370" y="98" rx="2" ry="2" width="12" height="12"/><rect class="c" x="386" y="2" rx="2" ry="2" width="12" height="12"/><rect class="c" x="386" y="18" rx="2" ry="2" width="12" height="12"/><rect class="c" x="386" y="34" rx="2" ry="2" width="12" height="12"/><rect class="c" x="386" y="50" rx="2" ry="2" width="12" height="12"/><rect class="c" x="386" y="66" rx="2" ry="2" width="12" height="12"/><rect class="c" x="386" y="82" rx="2" ry="2" width="12" height="12"/><rect class="c" x="386" y="98" rx="2" ry="2" width="12" height="12"/><rect class="c" x="402" y="2" rx="2" ry="2" width="12" height="12"/><rect class="c" x="402" y="18" rx="2" ry="2" width="12" height="12"/><rect class="c" x="402" y="34" rx="2" ry="2" width="12" height="12"/><rect class="c" x="402" y="50" rx="2" ry="2" width="12" height="12"/><rect class="c" x="402" y="66" rx="2" ry="2" width="12" height="12"/><rect class="c" x="402" y="82" rx="2" ry="2" width="12" height="12"/><rect class="c" x="402" y="98" rx="2" ry="2" width="12" height="12"/><rect class="c" x="418" y="2" rx="2" ry="2" width="12" height="12"/><rect class="c" x="418" y="18" rx="2" ry="2" width="12" height="12"/><rect class="c" x="418" y="34" rx="2" ry="2" width="12" height="12"/><rect class="c" x="418" y="50" rx="2" ry="2" width="12" height="12"/><rect class="c" x="418" y="66" rx="2" ry="2" width="12" height="12"/><rect class="c" x="418" y="82" rx="2" ry="2" width="12" height="12"/><rect class="c" x="418" y="98" rx="2" ry="2" width="12" height="12"/><rect class="c" x="434" y="2" rx="2" ry="2" width="12" height="12"/><rect class="c" x="434" y="18" rx="2" ry="2" width="12" height="12"/><rect class="c" x="434" y="34" rx="2" ry="2" width="12" height="12"/><rect class="c" x="434" y="50" rx="2" ry="2" width="12" height="12"/><rect class="c" x="434" y="66" rx="2" ry="2" width="12" height="12"/><rect class="c" x="434" y="82" rx="2" ry="2" width="12" height="12"/><rect class="c" x="434" y="98" rx="2" ry="2" width="12" height="12"/><rect class="c" x="450" y="2" rx="2" ry="2" width="12" height="12"/><rect class="c" x="450" y="18" rx="2" ry="2" width="12" height="12"/><rect class="c" x="450" y="34" rx="2" ry="2" width="12" height="12"/><rect class="c" x="450" y="50" rx="2" ry="2" width="12" height="12"/><rect class="c" x="450" y="66" rx="2" ry="2" width="12" height="12"/><rect class="c" x="450" y="82" rx="2" ry="2" width="12" height="12"/><rect class="c" x="450" y="98" rx="2" ry="2" width="12" height="12"/><rect class="c" x="466" y="2" rx="2" ry="2" width="12" height="12"/><rect class="c" x="466" y="18" rx="2" ry="2" width="12" height="12"/><rect class="c" x="466" y="34" rx="2" ry="2" width="12" height="12"/><rect class="c" x="466" y="50" rx="2" ry="2" width="12" height="12"/><rect class="c" x="466" y="66" rx="2" ry="2" width="12" height="12"/><rect class="c" x="466" y="82" rx="2" ry="2" width="12" height="12"/><rect class="c" x="466" y="98" rx="2" ry="2" width="12" height="12"/><rect class="c" x="482" y="2" rx="2" ry="2" width="12" height="12"/><rect class="c" x="482" y="18" rx="2" ry="2" width="12" height="12"/><rect class="c cn" x="482" y="34" rx="2" ry="2" width="12" height="12"/><rect class="c" x="482" y="50" rx="2" ry="2" width="12" height="12"/><rect class="c" x="482" y="66" rx="2" ry="2" width="12" height="12"/><rect class="c" x="482" y="82" rx="2" ry="2" width="12" height="12"/><rect class="c" x="482" y="98" rx="2" ry="2" width="12" height="12"/><rect class="c" x="498" y="2" rx="2" ry="2" width="12" height="12"/><rect class="c co" x="498" y="18" rx="2" ry="2" width="12" height="12"/><rect class="c" x="498" y="34" rx="2" ry="2" width="12" height="12"/><rect class="c cp" x="498" y="50" rx="2" ry="2" width="12" height="12"/><rect class="c cq" x="498" y="66" rx="2" ry="2" width="12" height="12"/><rect class="c" x="498" y="82" rx="2" ry="2" width="12" height="12"/><rect class="c" x="498" y="98" rx="2" ry="2" width="12" height="12"/><rect class="c" x="514" y="2" rx="2" ry="2" width="12" height="12"/><rect class="c cr" x="514" y="18" rx="2" ry="2" width="12" height="12"/><rect class="c cs" x="514" y="34" rx="2" ry="2" width="12" height="12"/><rect class="c" x="514" y="50" rx="2" ry="2" width="12" height="12"/><rect class="c" x="514" y="66" rx="2" ry="2" width="12" height="12"/><rect class="c ct" x="514" y="82" rx="2" ry="2" width="12" height="12"/><rect class="c cu" x="514" y="98" rx="2" ry="2" width="12" height="12"/><rect class="c cv" x="530" y="2" rx="2" ry="2" width="12" height="12"/><rect class="c cw" x="530" y="18" rx="2" ry="2" width="12" height="12"/><rect class="c cx" x="530" y="34" rx="2" ry="2" width="12" height="12"/><rect class="c cy" x="530" y="50" rx="2" ry="2" width="12" height="12"/><rect class="c cz" x="530" y="66" rx="2" ry="2" width="12" height="12"/><rect class="c c10" x="530" y="82" rx="2" ry="2" width="12" height="12"/><rect class="c c11" x="530" y="98" rx="2" ry="2" width="12" height="12"/><rect class="c" x="546" y="2" rx="2" ry="2" width="12" height="12"/><rect class="c" x="546" y="18" rx="2" ry="2" width="12" height="12"/><rect class="c" x="546" y="34" rx="2" ry="2" width="12" height="12"/><rect class="c c12" x="546" y="50" rx="2" ry="2" width="12" height="12"/><rect class="c" x="546" y="66" rx="2" ry="2" width="12" height="12"/><rect class="c c13" x="546" y="82" rx="2" ry="2" width="12" height="12"/><rect class="c" x="546" y="98" rx="2" ry="2" width="12" height="12"/><rect class="c" x="562" y="2" rx="2" ry="2" width="12" height="12"/><rect class="c c14" x="562" y="18" rx="2" ry="2" width="12" height="12"/><rect class="c c15" x="562" y="34" rx="2" ry="2" width="12" height="12"/><rect class="c c16" x="562" y="50" rx="2" ry="2" width="12" height="12"/><rect class="c" x="562" y="66" rx="2" ry="2" width="12" height="12"/><rect class="c c17" x="562" y="82" rx="2" ry="2" width="12" height="12"/><rect class="c c18" x="562" y="98" rx="2" ry="2" width="12" height="12"/><rect class="c" x="578" y="2" rx="2" ry="2" width="12" height="12"/><rect class="c" x="578" y="18" rx="2" ry="2" width="12" height="12"/><rect class="c" x="578" y="34" rx="2" ry="2" width="12" height="12"/><rect class="c" x="578" y="50" rx="2" ry="2" width="12" height="12"/><rect class="c" x="578" y="66" rx="2" ry="2" width="12" height="12"/><rect class="c" x="578" y="82" rx="2" ry="2" width="12" height="12"/><rect class="c" x="578" y="98" rx="2" ry="2" width="12" height="12"/><rect class="c" x="594" y="2" rx="2" ry="2" width="12" height="12"/><rect class="c" x="594" y="18" rx="2" ry="2" width="12" height="12"/><rect class="c" x="594" y="34" rx="2" ry="2" width="12" height="12"/><rect class="c" x="594" y="50" rx="2" ry="2" width="12" height="12"/><rect class="c" x="594" y="66" rx="2" ry="2" width="12" height="12"/><rect class="c" x="594" y="82" rx="2" ry="2" width="12" height="12"/><rect class="c" x="594" y="98" rx="2" ry="2" width="12" height="12"/><rect class="c" x="610" y="2" rx="2" ry="2" width="12" height="12"/><rect class="c" x="610" y="18" rx="2" ry="2" width="12" height="12"/><rect class="c c19" x="610" y="34" rx="2" ry="2" width="12" height="12"/><rect class="c" x="610" y="50" rx="2" ry="2" width="12" height="12"/><rect class="c" x="610" y="66" rx="2" ry="2" width="12" height="12"/><rect class="c" x="610" y="82" rx="2" ry="2" width="12" height="12"/><rect class="c" x="610" y="98" rx="2" ry="2" width="12" height="12"/><rect class="c" x="626" y="2" rx="2" ry="2" width="12" height="12"/><rect class="c" x="626" y="18" rx="2" ry="2" width="12" height="12"/><rect class="c" x="626" y="34" rx="2" ry="2" width="12" height="12"/><rect class="c" x="626" y="50" rx="2" ry="2" width="12" height="12"/><rect class="c" x="626" y="66" rx="2" ry="2" width="12" height="12"/><rect class="c" x="626" y="82" rx="2" ry="2" width="12" height="12"/><rect class="c" x="626" y="98" rx="2" ry="2" width="12" height="12"/><rect class="c" x="642" y="2" rx="2" ry="2" width="12" height="12"/><rect class="c" x="642" y="18" rx="2" ry="2" width="12" height="12"/><rect class="c" x="642" y="34" rx="2" ry="2" width="12" height="12"/><rect class="c" x="642" y="50" rx="2" ry="2" width="12" height="12"/><rect class="c" x="642" y="66" rx="2" ry="2" width="12" height="12"/><rect class="c" x="642" y="82" rx="2" ry="2" width="12" height="12"/><rect class="c" x="642" y="98" rx="2" ry="2" width="12" height="12"/><rect class="c" x="658" y="2" rx="2" ry="2" width="12" height="12"/><rect class="c" x="658" y="18" rx="2" ry="2" width="12" height="12"/><rect class="c c1a" x="658" y="34" rx="2" ry="2" width="12" height="12"/><rect class="c" x="658" y="50" rx="2" ry="2" width="12" height="12"/><rect class="c" x="658" y="66" rx="2" ry="2" width="12" height="12"/><rect class="c" x="658" y="82" rx="2" ry="2" width="12" height="12"/><rect class="c" x="658" y="98" rx="2" ry="2" width="12" height="12"/><rect class="c c1b" x="674" y="2" rx="2" ry="2" width="12" height="12"/><rect class="c" x="674" y="18" rx="2" ry="2" width="12" height="12"/><rect class="c" x="674" y="34" rx="2" ry="2" width="12" height="12"/><rect class="c" x="674" y="50" rx="2" ry="2" width="12" height="12"/><rect class="c" x="674" y="66" rx="2" ry="2" width="12" height="12"/><rect class="c" x="674" y="82" rx="2" ry="2" width="12" height="12"/><rect class="c" x="674" y="98" rx="2" ry="2" width="12" height="12"/><rect class="c" x="690" y="2" rx="2" ry="2" width="12" height="12"/><rect class="c" x="690" y="18" rx="2" ry="2" width="12" height="12"/><rect class="c" x="690" y="34" rx="2" ry="2" width="12" height="12"/><rect class="c" x="690" y="50" rx="2" ry="2" width="12" height="12"/><rect class="c" x="690" y="66" rx="2" ry="2" width="12" height="12"/><rect class="c" x="690" y="82" rx="2" ry="2" width="12" height="12"/><rect class="c" x="690" y="98" rx="2" ry="2" width="12" height="12"/><rect class="c" x="706" y="2" rx="2" ry="2" width="12" height="12"/><rect class="c" x="706" y="18" rx="2" ry="2" width="12" height="12"/><rect class="c" x="706" y="34" rx="2" ry="2" width="12" height="12"/><rect class="c c1c" x="706" y="50" rx="2" ry="2" width="12" height="12"/><rect class="c" x="706" y="66" rx="2" ry="2" width="12" height="12"/><rect class="c" x="706" y="82" rx="2" ry="2" width="12" height="12"/><rect class="c" x="706" y="98" rx="2" ry="2" width="12" height="12"/><rect class="c" x="722" y="2" rx="2" ry="2" width="12" height="12"/><rect class="c" x="722" y="18" rx="2" ry="2" width="12" height="12"/><rect class="c" x="722" y="34" rx="2" ry="2" width="12" height="12"/><rect class="c" x="722" y="50" rx="2" ry="2" width="12" height="12"/><rect class="c" x="722" y="66" rx="2" ry="2" width="12" height="12"/><rect class="c" x="722" y="82" rx="2" ry="2" width="12" height="12"/><rect class="c" x="722" y="98" rx="2" ry="2" width="12" height="12"/><rect class="c" x="738" y="2" rx="2" ry="2" width="12" height="12"/><rect class="c" x="738" y="18" rx="2" ry="2" width="12" height="12"/><rect class="c" x="738" y="34" rx="2" ry="2" width="12" height="12"/><rect class="c" x="738" y="50" rx="2" ry="2" width="12" height="12"/><rect class="c" x="738" y="66" rx="2" ry="2" width="12" height="12"/><rect class="c" x="738" y="82" rx="2" ry="2" width="12" height="12"/><rect class="c" x="738" y="98" rx="2" ry="2" width="12" height="12"/><rect class="c" x="754" y="2" rx="2" ry="2" width="12" height="12"/><rect class="c" x="754" y="18" rx="2" ry="2" width="12" height="12"/><rect class="c" x="754" y="34" rx="2" ry="2" width="12" height="12"/><rect class="c" x="754" y="50" rx="2" ry="2" width="12" height="12"/><rect class="c" x="754" y="66" rx="2" ry="2" width="12" height="12"/><rect class="c" x="754" y="82" rx="2" ry="2" width="12" height="12"/><rect class="c" x="754" y="98" rx="2" ry="2" width="12" height="12"/><rect class="c" x="770" y="2" rx="2" ry="2" width="12" height="12"/><rect class="c" x="770" y="18" rx="2" ry="2" width="12" height="12"/><rect class="c" x="770" y="34" rx="2" ry="2" width="12" height="12"/><rect class="c" x="770" y="50" rx="2" ry="2" width="12" height="12"/><rect class="c" x="770" y="66" rx="2" ry="2" width="12" height="12"/><rect class="c" x="770" y="82" rx="2" ry="2" width="12" height="12"/><rect class="c" x="770" y="98" rx="2" ry="2" width="12" height="12"/><rect class="c" x="786" y="2" rx="2" ry="2" width="12" height="12"/><rect class="c" x="786" y="18" rx="2" ry="2" width="12" height="12"/><rect class="c" x="786" y="34" rx="2" ry="2" width="12" height="12"/><rect class="c" x="786" y="50" rx="2" ry="2" width="12" height="12"/><rect class="c" x="786" y="66" rx="2" ry="2" width="12" height="12"/><rect class="c" x="786" y="82" rx="2" ry="2" width="12" height="12"/><rect class="c" x="786" y="98" rx="2" ry="2" width="12" height="12"/><rect class="c" x="802" y="2" rx="2" ry="2" width="12" height="12"/><rect class="c" x="802" y="18" rx="2" ry="2" width="12" height="12"/><rect class="c" x="802" y="34" rx="2" ry="2" width="12" height="12"/><rect class="c" x="802" y="50" rx="2" ry="2" width="12" height="12"/><rect class="c" x="802" y="66" rx="2" ry="2" width="12" height="12"/><rect class="c" x="802" y="82" rx="2" ry="2" width="12" height="12"/><rect class="c" x="802" y="98" rx="2" ry="2" width="12" height="12"/><rect class="c" x="818" y="2" rx="2" ry="2" width="12" height="12"/><rect class="c" x="818" y="18" rx="2" ry="2" width="12" height="12"/><rect class="c" x="818" y="34" rx="2" ry="2" width="12" height="12"/><rect class="c" x="818" y="50" rx="2" ry="2" width="12" height="12"/><rect class="c" x="818" y="66" rx="2" ry="2" width="12" height="12"/><rect class="c" x="818" y="82" rx="2" ry="2" width="12" height="12"/><rect class="c" x="818" y="98" rx="2" ry="2" width="12" height="12"/><rect class="c" x="834" y="2" rx="2" ry="2" width="12" height="12"/><rect class="c" x="834" y="18" rx="2" ry="2" width="12" height="12"/><rect class="c" x="834" y="34" rx="2" ry="2" width="12" height="12"/><rect class="c" x="834" y="50" rx="2" ry="2" width="12" height="12"/><rect class="c" x="834" y="66" rx="2" ry="2" width="12" height="12"/><rect class="c" x="834" y="82" rx="2" ry="2" width="12" height="12"/><rect class="u u0" height="12" width="658.2" x="0.0" y="144"/><rect class="u u1" height="12" width="121.7" x="657.6" y="144"/><rect class="u u2" height="12" width="35.2" x="778.8" y="144"/><rect class="u u3" height="12" width="35.2" x="813.4" y="144"/><rect class="s s0" x="0.8" y="0.8" width="14.4" height="14.4" rx="4.5" ry="4.5"/><rect class="s s1" x="1.8" y="1.8" width="12.3" height="12.3" rx="4.1" ry="4.1"/><rect class="s s2" x="2.6" y="2.6" width="10.8" height="10.8" rx="3.6" ry="3.6"/><rect class="s s3" x="3.0" y="3.0" width="9.9" height="9.9" rx="3.3" ry="3.3"/></svg>